<?xml version="1.0" encoding="utf-8"?>
<!-- Generator: Adobe Illustrator 26.1.0, SVG Export Plug-In . SVG Version: 6.00 Build 0)  -->
<svg version="1.1" id="omnom-logo-v1" xmlns="http://www.w3.org/2000/svg" xmlns:xlink="http://www.w3.org/1999/xlink" x="0px"
	 y="0px" viewBox="0 0 500 479.4" style="enable-background:new 0 0 500 479.4;" xml:space="preserve">
<style type="text/css">
	.st0{fill:#32373F;}
</style>
<g>
	<path class="st0" d="M373.5,435.8c-0.1,0.1-0.1,0.1-0.1,0c-13.7-1.2-27.2-3.3-40.6-6.4c-27-6-53.2-15.6-77.7-29.2
		c-19.4-10.4-35.8-25.4-54.7-36.6c-31.8,22.4-70.6,35.6-112.4,35.6c0,0,1.4,0.3,4,0.8c-1.8,0.1-3.6,0.1-5.4,0.1
		c-9,0-17.9-0.6-26.5-1.8c43.9,49.7,108.1,81.1,179.7,81.1c51,0,98.3-15.9,137.2-43.2C375.8,436,374.6,435.9,373.5,435.8z"/>
	<path class="st0" d="M500,389.7c-32.7,10.7-62.9,16.3-89.9,18.5c-1,0.1-2,0.2-3,0.2c-3.8,0.2-7.5,0.5-11.1,0.6l0.1-0.1
		c-33.6,1.1-67.3-3-99.6-13.5c-19.3-6.2-37.9-14.5-55-25.4c-8.8-6.1-18.1-11.8-27.6-17c-4-2.2-8.1-4.3-12.3-6.3
		c-13.5-6.8-27.8-12-42.3-16.3c0.1-0.1,0.1-0.2,0.2-0.3c9.9-14.2,26.9-22,44.2-21c3.2,0.2,6.4,0.5,9.6,0.9c11,1.6,21.9,4.7,32.4,8.7
		h0.1c2.3,0.9,4.6,1.8,6.9,2.8c13.2,5.4,27.1,10.3,40.7,14.4c18.3,5.2,37.2,10.1,56.3,10.1c-18.8-2-36.8-8.7-54.3-15.8
		c-10.8-4.5-21.6-9.6-32-14.9c-3.4-1.8-7.4-3.9-11.2-5.9c-0.1,0-0.1-0.1-0.1-0.1c-2.7-1.3-5.4-2.7-7.9-3.9
		c-9.9-4.8-20.4-8.5-31.1-10.8c16.3-4,33-5.8,49.6-3.7c1.5,0.2,2.9,0.3,4.3,0.6c20.5,2.7,37.6,13.9,57.5,19.4
		c41.7,12.6,86.5,12.5,129,3.3c4.2-0.8,8.3-1.8,12.4-2.9c0.2-0.1,0.4-0.1,0.6-0.2l-20.3,39.5l4.3,3.1L500,389.7z"/>
	<path class="st0" d="M354.7,29.3C320.6,10.6,281.3,0,239.7,0c-31.9,0-62.3,6.3-90.2,17.5C61.8,53.2,0,139.2,0,239.7
		c0,4.1,0.1,8.1,0.3,12.1c34.2,18.7,73.4,29.3,115,29.3c65.1,0,124.2-26,167.4-68.1c-0.9,19-4.5,37.4-10.4,54.6c0.1,0,0.1,0,0.2,0
		c-1.6,4.6-3.3,9.2-5.3,13.7c0.5,0,1,0,1.5,0.1c20.6,0.8,40,10.5,59.8,14.3c19.2,4,38.9,5.2,58.3,3.9c30.4-1.4,60.6-10.4,89.1-22.2
		l0.7-1.2c1.9-11.9,2.8-24.2,2.8-36.6C479.3,149,429,70.1,354.7,29.3z M124.5,239.5c-11.1,0-21.7-2.4-31.2-6.8c1,0.1,2,0.1,3,0.1
		c23.2,0,42-18.8,42-42c0-20-14-36.7-32.7-40.9l54.9-51.4c23.3,12.7,39.1,37.5,39.1,65.9C199.6,205.9,166,239.5,124.5,239.5z"/>
</g>
</svg>
